<svg width="500" height="500" viewBox="0 0 500 500" fill="none" xmlns="http://www.w3.org/2000/svg">
<g clip-path="url(#clip0_105_372)">
<mask id="mask0_105_372" style="mask-type:luminance" maskUnits="userSpaceOnUse" x="0" y="0" width="500" height="500">
<path d="M500 0H0V500H500V0Z" fill="white"/>
</mask>
<g mask="url(#mask0_105_372)">
<path d="M68.35 115.35H193.55V199.15H68.35V115.35Z" fill="white"/>
<path d="M193.65 199.25V197.75V193.35V176.45C193.65 161.85 193.55 140.95 193.55 115.45L193.75 115.65H68.55L68.75 115.45V199.25L68.55 199.05L158.75 199.15L184.55 199.25H191.45H193.25H193.85H191.55H184.65L158.95 199.35L68.65 199.45H68.45V199.25V115.45V115.25H68.65H193.85H194.05V115.45C194.05 141.05 193.95 162.05 193.95 176.55V193.35V197.75C193.95 198.75 193.65 199.25 193.65 199.25Z" fill="#DFDFDF"/>
<path d="M68.35 122.85C68.35 122.75 96.35 122.65 130.95 122.65C165.55 122.65 193.55 122.75 193.55 122.85C193.55 122.95 165.55 123.05 130.95 123.05C96.35 123.05 68.35 122.95 68.35 122.85Z" fill="#DFDFDF"/>
<path d="M73.35 119.05C73.35 119.65 72.95 120.05 72.35 120.05C71.75 120.05 71.35 119.65 71.35 119.05C71.35 118.45 71.75 118.05 72.35 118.05C72.95 118.05 73.35 118.55 73.35 119.05Z" fill="#DFDFDF"/>
<path d="M75.75 118.05C76.302 118.05 76.75 118.498 76.75 119.05C76.75 119.602 76.302 120.05 75.75 120.05C75.198 120.05 74.75 119.602 74.75 119.05C74.75 118.498 75.198 118.05 75.75 118.05Z" fill="#DFDFDF"/>
<path d="M80.15 119.05C80.15 119.65 79.75 120.05 79.15 120.05C78.55 120.05 78.15 119.65 78.15 119.05C78.15 118.45 78.55 118.05 79.15 118.05C79.75 118.05 80.15 118.55 80.15 119.05Z" fill="#DFDFDF"/>
<path d="M79.15 131.55H112.55V164.95H79.15V131.55Z" fill="#DFDFDF"/>
<path d="M176.449 141.05C176.449 141.15 163.449 141.25 147.349 141.25C131.249 141.25 118.249 141.15 118.249 141.05C118.249 140.95 131.249 140.85 147.349 140.85C163.449 140.85 176.449 140.95 176.449 141.05Z" fill="#DFDFDF"/>
<path d="M176.449 147.25C176.449 147.35 163.449 147.45 147.349 147.45C131.249 147.45 118.249 147.35 118.249 147.25C118.249 147.15 131.249 147.05 147.349 147.05C163.449 147.05 176.449 147.15 176.449 147.25Z" fill="#DFDFDF"/>
<path d="M176.449 153.45C176.449 153.55 163.449 153.65 147.349 153.65C131.249 153.65 118.249 153.55 118.249 153.45C118.249 153.35 131.249 153.25 147.349 153.25C163.449 153.25 176.449 153.35 176.449 153.45Z" fill="#DFDFDF"/>
<path d="M152.65 159.65C152.25 159.75 151.75 159.75 151.25 159.75L147.55 159.85C144.45 159.85 140.15 159.95 135.45 159.95C130.75 159.95 126.45 159.95 123.25 159.85L119.55 159.75C119.05 159.75 118.65 159.75 118.25 159.65C118.65 159.55 119.15 159.55 119.55 159.55L123.25 159.45C126.35 159.35 130.65 159.35 135.45 159.35C140.25 159.35 144.45 159.35 147.55 159.45L151.25 159.55C151.75 159.55 152.25 159.55 152.65 159.65Z" fill="#DFDFDF"/>
<path d="M81.25 176.25H96.95V191.95H81.25V176.25Z" fill="#DFDFDF"/>
<path d="M109.75 176.25H125.45V191.95H109.75V176.25Z" fill="#DFDFDF"/>
<path d="M138.15 176.25H153.85V191.95H138.15V176.25Z" fill="#DFDFDF"/>
<path d="M166.65 176.25H182.35V191.95H166.65V176.25Z" fill="#DFDFDF"/>
<path d="M421.75 136.3C421.65 136.8 421.351 137.3 421.051 137.7C419.65 139.8 417.15 140.8 414.65 140.4C413.551 140.2 412.45 139.7 411.551 138.9C411.051 138.5 410.649 138 410.35 137.5C409.949 136.9 409.75 136.3 409.551 135.7C409.15 134.4 409.25 132.9 409.75 131.6C410.25 130.3 411.149 129.2 412.35 128.5C412.949 128.1 413.551 127.9 414.15 127.7C414.75 127.5 415.351 127.5 416.051 127.5C418.25 127.6 420.249 128.8 421.449 130.7C422.249 131.9 422.55 133.4 422.35 134.9C422.149 135.4 421.95 135.9 421.75 136.3C421.75 136.3 421.95 135.8 422.051 134.8C422.15 133.4 421.851 132 421.15 130.8C420.051 129 418.05 127.9 415.949 127.9C415.35 127.9 414.75 128 414.15 128.1C410.851 129 408.949 132.4 409.85 135.7C410.05 136.3 410.25 136.9 410.65 137.4C410.95 137.9 411.351 138.4 411.75 138.8C413.351 140.2 415.551 140.7 417.551 140.1C418.95 139.7 420.149 138.9 420.949 137.7C421.249 137.3 421.551 136.8 421.75 136.3Z" fill="#DFDFDF"/>
<path d="M404.931 124.004L404.733 123.978L404.051 123.791L401.522 123.066L401.621 123.078C400.949 124.404 400.013 126.2 398.844 128.269L398.856 128.17L401.58 130.533L401.679 130.545L401.666 130.645C401.403 131.922 401.239 133.211 401.285 134.427L401.272 134.526L401.174 134.513L398.031 136.23L398.056 136.032L399.756 141.692L399.669 141.58L403.23 141.327L403.329 141.34L403.415 141.452C404.083 142.545 404.861 143.551 405.865 144.385L405.952 144.497L405.939 144.596C405.601 145.662 405.351 146.839 405.001 148.005L404.927 147.794L410.118 150.571L409.907 150.645L412.27 147.922L412.38 147.835L412.481 147.848C413.758 148.111 414.948 148.263 416.263 148.228L416.361 148.241L416.449 148.353L418.166 151.495L417.966 151.469L423.627 149.771L423.502 149.956C423.443 148.84 423.296 147.612 423.25 146.396L423.263 146.297L423.375 146.21C424.468 145.543 425.474 144.764 426.306 143.761L426.517 143.687L426.618 143.7L426.717 143.712L426.915 143.737L427.399 143.9L428.278 144.113L430.039 144.538L429.828 144.612L432.506 139.409L432.579 139.62L429.856 137.257L429.77 137.145L429.783 137.046C430.045 135.769 430.197 134.579 430.163 133.264L430.175 133.165L430.288 133.078L433.429 131.361L433.306 131.547C432.752 129.561 432.186 127.674 431.606 125.887L431.791 126.011L428.231 126.264L428.133 126.251L428.045 126.139C427.378 125.046 426.6 124.04 425.596 123.207L425.51 123.095L425.523 122.996C425.873 121.831 426.222 120.665 426.461 119.587L426.534 119.798L421.343 117.02L421.555 116.946L419.192 119.67L419.18 119.769L419.081 119.756C417.803 119.493 416.513 119.329 415.297 119.376L415.199 119.363L415.212 119.264L413.495 116.122L413.594 116.135L407.933 117.833L407.946 117.734C408.068 119.161 408.113 120.376 408.198 121.294C407.33 121.789 406.546 122.395 405.863 123.013L405.292 123.546L404.931 124.004L405.068 123.719C405.179 123.632 405.304 123.446 405.541 123.174C406.237 122.456 407.02 121.85 407.79 121.343L407.777 121.443C407.705 120.425 407.645 119.309 407.525 117.882L407.512 117.981L407.61 117.994L413.271 116.295L413.369 116.308L413.457 116.419L415.174 119.561L415.087 119.45C416.402 119.415 417.692 119.58 418.968 119.843L418.857 119.929L421.22 117.206L421.33 117.119L421.431 117.132L426.621 119.91L426.721 119.922L426.708 120.022C426.37 121.087 426.12 122.265 425.77 123.43L425.684 123.319C426.674 124.251 427.453 125.257 428.12 126.35L427.934 126.226L431.495 125.974L431.593 125.986L431.681 126.098L433.379 131.758L433.466 131.87L433.353 131.956L430.212 133.673L430.336 133.487C430.371 134.802 430.207 136.092 429.944 137.369L429.869 137.158L432.592 139.521L432.68 139.633L432.667 139.732L429.888 144.922L429.876 145.022L429.777 145.009L428.017 144.583L427.137 144.371L426.654 144.208L426.454 144.183L426.356 144.17L426.256 144.158C426.679 144.01 426.356 144.17 426.467 144.084C425.548 144.975 424.528 145.853 423.337 146.508L423.46 146.322C423.507 147.538 423.653 148.766 423.713 149.882L423.687 150.081L423.577 150.167L417.916 151.866L417.805 151.953L417.717 151.841C417.15 150.761 416.482 149.668 416.001 148.699L416.187 148.824C414.872 148.858 413.582 148.694 412.305 148.43L412.517 148.356L410.154 151.08L410.042 151.166L409.942 151.154L404.751 148.376L404.653 148.363L404.665 148.264C405.015 147.099 405.364 145.934 405.603 144.855L405.676 145.066C404.687 144.134 403.907 143.127 403.241 142.035L403.326 142.146L399.766 142.399L399.668 142.386L399.68 142.287C399.127 140.301 398.56 138.415 397.98 136.627L397.993 136.528L398.106 136.441L401.247 134.724L401.234 134.823C401.201 133.509 401.365 132.219 401.628 130.942L401.616 131.041L398.892 128.679L398.793 128.666L398.806 128.567L401.682 123.388L401.694 123.289L404.224 124.014L404.906 124.202L404.931 124.004Z" fill="#DFDFDF"/>
<path d="M438.825 112.745C439.306 111.776 439.998 110.882 440.716 110.185L439.755 107.384L443.967 104.832L446.054 106.986C447.121 106.648 448.113 106.522 449.217 106.482L450.488 103.8L455.279 105.005L455.247 107.932C456.217 108.414 457.112 109.106 457.807 109.824L460.609 108.863L463.161 113.074L461.007 115.163C461.344 116.229 461.47 117.221 461.511 118.325L464.205 119.695L463.001 124.486L460.073 124.455C459.592 125.424 458.898 126.319 458.18 127.015L459.143 129.816L454.931 132.368L452.842 130.215C451.777 130.552 450.785 130.678 449.681 130.718L448.408 133.4L443.619 132.195L443.649 129.268C442.681 128.786 441.886 128.081 441.089 127.376L438.289 128.337L435.737 124.126L437.889 122.037C437.552 120.971 437.426 119.979 437.387 118.875L434.693 117.505L435.897 112.714L438.825 112.745ZM444.416 117.073C443.665 119.891 445.446 122.789 448.251 123.44C451.067 124.19 453.966 122.41 454.617 119.605C455.367 116.788 453.587 113.89 450.783 113.239C447.965 112.488 445.154 114.157 444.416 117.073Z" fill="#DFDFDF"/>
<path d="M407.857 78.078C408.672 76.5629 409.711 75.221 410.874 74.0649L409.401 69.6152L415.954 65.6561L419.199 68.973C420.847 68.4607 422.433 68.2588 424.146 68.2424L426.232 64.0455L433.728 65.9139L433.614 70.5655C435.13 71.3806 436.472 72.4195 437.628 73.5828L442.077 72.1093L446.036 78.6618L442.72 81.9065C443.232 83.555 443.434 85.1422 443.45 86.854L447.648 88.9406L445.778 96.4366L441.127 96.3231C440.312 97.8381 439.373 99.1673 438.221 100.423L439.695 104.872L433.142 108.831L429.898 105.514C428.249 106.027 426.663 106.229 424.951 106.245L422.863 110.442L415.368 108.574L415.369 103.836C413.854 103.02 412.513 101.981 411.357 100.818L406.906 102.292L402.948 95.7391L406.265 92.4943C405.752 90.846 405.55 89.2588 405.534 87.5471L401.325 85.361L403.193 77.8651L407.857 78.078ZM416.592 84.9299C415.548 89.3975 418.224 93.7947 422.605 94.9508C426.986 96.1068 431.47 93.3184 432.626 88.9373C433.67 84.4697 430.994 80.0725 426.613 78.9164C422.132 77.773 417.637 80.4621 416.592 84.9299Z" fill="#DFDFDF"/>
<path d="M369.249 60.35C369.449 60.15 369.55 59.95 369.749 59.75L371.249 58.25C372.55 56.95 374.35 55.25 376.35 53.35V53.55C374.35 51.65 372.55 49.95 371.249 48.75L369.749 47.25C369.55 47.05 369.35 46.85 369.249 46.65C369.449 46.75 369.649 46.95 369.85 47.15L371.449 48.55C372.749 49.75 374.649 51.45 376.649 53.35L376.749 53.45L376.649 53.55C374.649 55.45 372.85 57.15 371.449 58.45L369.85 59.95C369.749 60.05 369.449 60.15 369.249 60.35Z" fill="#DFDFDF"/>
<path d="M353.65 46.55C353.45 46.75 353.35 46.95 353.15 47.15L351.65 48.65C350.35 49.95 348.55 51.65 346.55 53.55V53.25C348.55 55.15 350.35 56.85 351.65 58.05L353.15 59.55C353.35 59.75 353.55 59.95 353.65 60.15C353.45 60.05 353.25 59.85 353.05 59.65C352.65 59.25 352.05 58.75 351.45 58.25C350.15 57.05 348.25 55.35 346.25 53.45L346.15 53.35L346.25 53.25C348.25 51.35 350.05 49.65 351.45 48.35L353.05 46.95C353.25 46.85 353.45 46.65 353.65 46.55Z" fill="#DFDFDF"/>
<path d="M357.65 63.55C357.55 63.55 359.15 58.95 361.35 53.25C363.55 47.55 365.25 43.05 365.35 43.05C365.45 43.05 363.85 47.65 361.65 53.35C359.45 59.05 357.75 63.55 357.65 63.55Z" fill="#DFDFDF"/>
<path d="M387.05 72.65V70.45V62.05C387.05 54.85 387.05 44.55 386.949 32.05L387.05 32.25H336.249L336.449 32.05V73.45L336.249 73.25L372.949 73.35H383.35H386.15H383.449L373.05 73.45L336.249 73.55H336.05V73.35V31.95V31.75H336.249H387.05H387.15V31.95C387.15 44.45 387.05 54.75 387.05 62.05V70.45V72.65Z" fill="#DFDFDF"/>
<path d="M387.449 38.15C387.449 38.25 375.949 38.35 361.849 38.35C347.749 38.35 336.249 38.25 336.249 38.15C336.249 38.05 347.649 37.95 361.849 37.95C376.05 37.95 387.449 38.05 387.449 38.15Z" fill="#DFDFDF"/>
<path d="M340.35 35.15C340.35 35.55 340.05 35.85 339.65 35.85C339.249 35.85 338.95 35.55 338.95 35.15C338.95 34.75 339.249 34.45 339.65 34.45C340.05 34.45 340.35 34.75 340.35 35.15Z" fill="#DFDFDF"/>
<path d="M342.15 34.45C342.537 34.45 342.85 34.763 342.85 35.15C342.85 35.536 342.537 35.85 342.15 35.85C341.763 35.85 341.45 35.536 341.45 35.15C341.45 34.763 341.763 34.45 342.15 34.45Z" fill="#DFDFDF"/>
<path d="M345.35 35.15C345.35 35.55 345.05 35.85 344.65 35.85C344.249 35.85 343.95 35.55 343.95 35.15C343.95 34.75 344.249 34.45 344.65 34.45C345.05 34.45 345.35 34.75 345.35 35.15Z" fill="#DFDFDF"/>
<path d="M171.45 51.95H288.85V99.65H171.45V51.95Z" fill="white"/>
<path d="M288.85 99.65V98.85V96.35V86.85C288.85 78.65 288.85 66.75 288.749 51.95L288.85 52.05L171.45 52.15L171.65 51.95V99.65L171.45 99.45L255.65 99.55L280.05 99.65H255.65L171.35 99.75H171.15V99.55V51.85V51.65H171.35H288.749H288.85V51.95C288.85 66.75 288.85 78.65 288.749 86.85V96.35V98.75C288.749 99.25 288.85 99.65 288.85 99.65Z" fill="#DFDFDF"/>
<path d="M171.65 58.45C171.65 58.35 197.85 58.25 230.25 58.25C262.65 58.25 288.85 58.35 288.85 58.45C288.85 58.55 262.65 58.65 230.25 58.65C197.85 58.65 171.65 58.55 171.65 58.45Z" fill="#DFDFDF"/>
<path d="M176.55 55.55C176.55 56.05 176.15 56.35 175.65 56.35C175.15 56.35 174.75 55.95 174.75 55.55C174.75 55.05 175.15 54.65 175.65 54.65C176.15 54.65 176.55 55.05 176.55 55.55Z" fill="#EBEBEB"/>
<path d="M179.449 55.55C179.449 56.05 179.049 56.35 178.549 56.35C178.049 56.35 177.649 55.95 177.649 55.55C177.649 55.05 178.049 54.65 178.549 54.65C179.049 54.65 179.449 55.05 179.449 55.55Z" fill="#EBEBEB"/>
<path d="M181.449 54.65C181.946 54.65 182.349 55.053 182.349 55.55C182.349 56.047 181.946 56.45 181.449 56.45C180.952 56.45 180.549 56.047 180.549 55.55C180.549 55.053 180.952 54.65 181.449 54.65Z" fill="#EBEBEB"/>
<path d="M181.45 66.15H209.85V94.45H181.45V66.15Z" fill="#DFDFDF"/>
<path d="M280.749 73.75C280.749 73.85 266.149 73.95 248.149 73.95C230.149 73.95 215.549 73.85 215.549 73.75C215.549 73.65 230.149 73.55 248.149 73.55C266.149 73.55 280.749 73.65 280.749 73.75Z" fill="#DFDFDF"/>
<path d="M280.749 79.55C280.749 79.65 266.149 79.75 248.149 79.75C230.149 79.75 215.549 79.65 215.549 79.55C215.549 79.45 230.149 79.35 248.149 79.35C266.149 79.35 280.749 79.45 280.749 79.55Z" fill="#DFDFDF"/>
<path d="M257.15 85.35H255.949L251.449 85.45L236.65 85.55L221.85 85.45L217.35 85.35L221.85 85.25H236.65H251.449L255.949 85.35H257.15Z" fill="#DFDFDF"/>
<path d="M472.55 444.049C472.55 444.15 372.749 444.35 249.65 444.35C126.55 444.35 26.75 444.249 26.75 444.049C26.75 443.85 126.55 443.749 249.65 443.749C372.749 443.749 472.55 443.85 472.55 444.049Z" fill="#253138"/>
<path d="M332.346 411.777L334.381 433.902C334.381 433.902 357.482 439.203 358.32 443.228L315.682 448.798L311.021 414.513L332.346 411.777Z" fill="#847EFF"/>
<path d="M321.046 433.76C320.193 434.176 319.803 435.035 320.12 435.901C320.437 436.766 321.395 437.143 322.261 436.826C323.113 436.41 323.59 435.44 323.273 434.574C322.856 433.72 321.813 433.457 320.96 433.873" fill="white"/>
<path d="M315.683 448.799L315.221 445.329L356.444 441.259C356.444 441.259 358.433 441.801 358.42 443.216L315.683 448.799Z" fill="white"/>
<path d="M335.148 433.6C335.174 433.798 334.196 434.03 333.198 434.868C332.2 435.707 331.823 436.666 331.612 436.592C331.4 436.519 331.539 435.29 332.722 434.326C333.906 433.362 335.122 433.402 335.148 433.6Z" fill="#253138"/>
<path d="M339.846 434.791C339.872 434.988 339.033 435.504 338.458 436.488C337.882 437.472 337.803 438.391 337.605 438.418C337.406 438.444 337.149 437.268 337.896 436.059C338.643 434.849 339.82 434.592 339.846 434.791Z" fill="#253138"/>
<path d="M343.049 439.913C342.851 439.939 342.422 438.988 342.871 437.817C343.321 436.649 344.147 436.034 344.273 436.219C344.398 436.403 343.883 437.078 343.506 438.035C343.129 438.994 343.333 439.773 343.049 439.913Z" fill="#253138"/>
<path d="M334.079 428.597C334.006 428.808 333.074 428.63 331.899 428.887C330.723 429.144 329.881 429.66 329.757 429.474C329.63 429.289 330.431 428.477 331.807 428.193C333.18 427.909 334.153 428.385 334.079 428.597Z" fill="#253138"/>
<path d="M332.827 416.153L333.156 420.145L312.201 422.629L311.627 419.074L332.827 416.153Z" fill="black"/>
<path d="M333.585 424.123C332.917 424.413 332.124 424.519 331.404 424.413C330.598 424.419 329.864 424.214 329.131 424.009C328.708 423.864 328.285 423.718 327.848 423.474C327.638 423.401 327.313 423.242 327.188 423.057C326.851 422.799 326.785 422.304 326.944 421.98C327.102 421.656 327.473 421.405 327.77 421.365C328.067 421.326 328.266 421.3 328.576 421.359C329.084 421.392 329.508 421.538 329.931 421.683C330.664 421.889 331.424 422.292 332.085 422.708C333.195 423.469 333.598 424.222 333.611 424.321C333.624 424.42 332.936 423.806 331.839 423.145C331.193 422.827 330.545 422.51 329.812 422.304C329.389 422.159 328.979 422.113 328.57 422.066C328.061 422.033 327.663 422.086 327.592 422.297C327.519 422.509 327.605 422.396 327.618 422.495C327.729 422.582 327.955 422.753 328.166 422.826C328.589 422.972 328.926 423.229 329.335 423.276C330.069 423.481 330.803 423.686 331.523 423.792C332.144 423.911 332.864 424.017 333.585 424.123Z" fill="#253138"/>
<path d="M333.328 424.459C332.852 423.917 332.547 423.151 332.454 422.456C332.349 421.664 332.343 420.857 332.435 420.038C332.483 419.629 332.615 419.108 332.759 418.684C332.879 418.064 333.422 417.587 334.003 417.41C334.4 417.357 334.724 417.515 334.975 417.885C335.114 418.169 335.237 418.354 335.277 418.651C335.443 419.133 335.509 419.629 335.475 420.138C335.482 420.944 335.292 421.778 334.875 422.438C334.227 423.634 333.373 424.05 333.36 423.95C333.347 423.851 333.988 423.362 334.437 422.193C334.755 421.545 334.861 420.826 334.868 420.118C334.913 419.708 334.861 419.314 334.71 418.929C334.545 418.447 334.405 418.162 334.207 418.188C334.009 418.214 333.653 418.565 333.506 418.989C333.361 419.411 333.216 419.834 333.169 420.244C333.063 420.964 332.959 421.683 333.051 422.377C333.122 423.679 333.427 424.446 333.328 424.459Z" fill="#253138"/>
<path d="M148.75 271.85L174.85 359.95C176.05 363.85 179.65 366.55 183.65 366.55L289.65 366.85C295.05 366.85 299.45 362.45 299.45 357.05V356.55C299.15 351.35 294.85 347.25 289.65 347.25H249.15L216.75 256.85H159.95C153.55 256.85 148.25 262.05 148.25 268.55C148.25 269.65 148.45 270.75 148.75 271.85Z" fill="#455A63"/>
<path d="M238.45 354.551C238.45 354.751 227.65 354.95 214.35 354.95C201.05 354.95 190.25 354.751 190.25 354.551C190.25 354.351 201.05 354.151 214.35 354.151C227.65 354.151 238.45 354.351 238.45 354.551Z" fill="#253138"/>
<path d="M156.55 259.65C156.75 259.55 163.95 280.65 172.65 306.85C181.35 333.05 188.25 354.15 188.05 354.251C187.85 354.35 180.65 333.251 171.95 307.05C163.25 280.85 156.35 259.751 156.55 259.65Z" fill="#253138"/>
<path d="M233.95 444.949L227.55 444.75V366.551H233.95V444.949Z" fill="#455A63"/>
<path d="M200.75 444.55H260.85L233.65 435.15H227.15L200.75 444.55Z" fill="#455A63"/>
<path d="M185.45 236.65L195.35 286.35L193.55 323.55L260.45 312.45L257.85 279.85L257.75 252.85L274.15 284.65L286.95 259.95L263.55 217.55C259.25 213.15 254.05 209.75 248.25 207.65C245.15 206.55 241.95 205.95 238.65 205.85C231.15 208.25 223.05 208.25 215.55 205.85C214.65 205.95 213.35 206.05 211.65 206.25H211.35C197.15 208.05 186.25 219.75 185.55 234.05L185.45 236.65Z" fill="#847EFF"/>
<path d="M211.75 206.35C211.75 206.35 184.25 206.55 180.85 235.55L180.35 256.85L204.05 256.65L211.75 206.35Z" fill="#847EFF"/>
<path d="M277.35 243.65C277.35 243.85 255.75 244.05 229.05 244.05C202.35 244.05 180.85 243.85 180.85 243.65C180.85 243.45 202.45 243.25 229.15 243.25C255.85 243.25 277.35 243.45 277.35 243.65Z" fill="#F9F9F9"/>
<path d="M277.35 248.25C277.35 248.45 255.75 248.65 229.05 248.65C202.35 248.65 180.75 248.45 180.75 248.25C180.75 248.05 202.35 247.85 229.05 247.85C255.75 247.85 277.35 248.05 277.35 248.25Z" fill="#F9F9F9"/>
<path d="M275.85 239.85C275.85 240.05 254.55 240.25 228.35 240.25C202.15 240.25 180.85 240.05 180.85 239.85C180.85 239.65 202.15 239.45 228.35 239.45C254.55 239.45 275.85 239.65 275.85 239.85Z" fill="#F9F9F9"/>
<path d="M257.551 284.65C257.351 284.65 257.449 272.85 257.75 258.35C258.05 243.85 258.55 232.05 258.75 232.05C258.949 232.05 258.851 243.85 258.551 258.35C258.251 272.85 257.751 284.65 257.551 284.65Z" fill="#253138"/>
<path d="M240.35 206.35C240.35 206.35 240.45 206.55 240.55 206.85C240.75 207.35 240.85 207.85 240.95 208.35C241.35 210.25 241.25 212.15 240.75 213.95C239.95 216.65 238.35 219.05 236.25 220.95C233.65 223.25 230.25 224.55 226.75 224.55C223.25 224.65 219.85 223.25 217.35 220.75C215.35 218.65 214.15 216.05 213.85 213.15C213.65 211.25 213.85 209.35 214.55 207.55C214.75 207.05 214.95 206.65 215.25 206.15C215.45 205.85 215.55 205.75 215.55 205.75C215.55 205.75 215.25 206.45 214.85 207.65C214.35 209.45 214.15 211.25 214.45 213.05C214.85 215.75 216.05 218.25 217.95 220.25C220.35 222.55 223.55 223.85 226.85 223.85C230.15 223.85 233.45 222.65 235.95 220.45C238.05 218.65 239.65 216.35 240.45 213.75C240.95 211.95 241.15 210.15 240.95 208.35C240.55 207.05 240.25 206.35 240.35 206.35Z" fill="#253138"/>
<path d="M292.65 421.05L302.55 448.35L316.65 467.65C317.65 468.949 317.251 470.85 315.95 471.85L315.85 471.949C315.05 472.449 314.05 472.55 313.15 472.15C307.45 469.75 286.65 461.05 286.05 459.05C285.35 456.65 271.95 427.35 271.95 427.35L292.65 421.05Z" fill="#847EFF"/>
<path d="M315.85 471.95L285.35 457.251L285.85 458.35C286.25 459.35 286.95 460.15 287.85 460.65C290.35 462.051 297.35 465.551 313.05 472.15C313.95 472.551 314.95 472.551 315.85 471.95Z" fill="white"/>
<path d="M287.45 446.35C288.35 446.55 288.85 447.45 288.751 448.35C288.551 449.25 287.65 449.85 286.751 449.65C285.85 449.45 285.251 448.45 285.35 447.55C285.65 446.65 286.65 446.15 287.551 446.45" fill="white"/>
<path d="M305.05 462.55C305.35 461.449 305.949 460.449 306.65 459.55C307.949 458.15 309.55 457.949 309.55 457.75C309.55 457.55 309.15 457.65 308.449 457.75C306.65 458.25 305.35 459.65 305.05 461.449C304.85 462.15 304.949 462.55 305.05 462.55Z" fill="#253138"/>
<path d="M308.35 465.45C308.55 465.551 309.05 464.35 310.25 463.35C311.05 462.85 311.85 462.35 312.75 461.95C312.75 461.751 311.25 461.751 309.85 462.85C308.45 463.95 308.25 465.35 308.35 465.45Z" fill="#253138"/>
<path d="M299.65 459.35C299.85 459.45 300.65 457.55 302.45 455.95C304.251 454.35 306.15 453.65 306.05 453.45C305.95 453.25 303.85 453.65 301.95 455.45C300.05 457.25 299.45 459.25 299.65 459.35Z" fill="#253138"/>
<path d="M295.95 451.25C296.051 451.35 297.35 450.15 299.251 449.351C301.15 448.551 302.85 448.35 302.85 448.25C302.85 448.149 301.051 447.95 298.95 448.851C296.85 449.751 295.85 451.149 295.95 451.25Z" fill="#253138"/>
<path d="M292.85 443.35C292.95 443.45 294.15 441.95 296.25 441.25C298.35 440.55 300.15 440.95 300.15 440.75C300.15 440.55 299.75 440.45 298.95 440.35C296.95 440.05 294.85 440.75 293.45 442.25C292.95 442.85 292.75 443.25 292.85 443.35Z" fill="#253138"/>
<path d="M295.551 439.751C295.45 439.351 295.35 439.051 295.15 438.751C294.65 437.851 294.051 437.051 293.251 436.351C292.751 435.851 292.051 435.45 291.351 435.351C290.851 435.351 290.35 435.65 290.15 436.051C289.949 436.45 289.949 436.95 290.15 437.45C290.949 439.351 293.051 440.251 295.051 439.751C296.95 439.251 298.351 437.649 298.551 435.649C298.651 435.149 298.449 434.65 298.15 434.351C297.75 434.051 297.251 433.95 296.751 434.251C296.151 434.65 295.651 435.251 295.351 435.851C294.851 436.751 294.551 437.649 294.351 438.649C294.251 439.05 294.251 439.351 294.351 439.751C294.651 438.45 295.151 437.251 295.851 436.051C296.151 435.45 296.55 435.05 297.15 434.649C297.35 434.55 297.651 434.551 297.95 434.751C298.151 435.051 298.25 435.35 298.15 435.649C297.85 437.35 296.651 438.75 295.051 439.149C293.351 439.55 291.651 438.751 290.95 437.251C290.751 436.95 290.751 436.551 290.851 436.251C290.95 435.95 291.251 435.851 291.45 435.851C292.051 435.95 292.651 436.25 293.051 436.649C294.151 437.55 294.95 438.65 295.551 439.751Z" fill="#253138"/>
<path d="M313.051 307.649C287.651 310.25 253.95 313.751 253.95 313.751L258.551 355.149C258.551 355.149 308.051 342.049 307.751 343.149C307.45 344.25 310.051 431.25 310.051 431.25H339.851L340.45 332.751C340.651 319.05 329.751 307.849 316.051 307.649C314.95 307.549 314.051 307.549 313.051 307.649Z" fill="#253138"/>
<path d="M193.05 324.35V337.15C193.05 345.85 202.95 355.15 211.75 355.15H218.55C223.85 355.15 232.25 351.25 236.55 348.15L239.15 346.25L270.25 442.45C270.25 442.45 305.75 436.05 305.75 434.95C305.75 433.85 281.65 356.15 270.55 320.05C266.05 305.35 250.25 296.75 235.65 301.75C235.15 301.95 234.65 302.15 234.15 302.35C218.15 308.85 193.05 324.35 193.05 324.35Z" fill="#253138"/>
<path d="M305.65 435.05C305.55 434.949 305.55 434.85 305.55 434.75C305.45 434.449 305.35 434.15 305.15 433.75C304.85 432.85 304.35 431.55 303.751 429.75C302.55 426.25 300.95 421.25 298.95 414.949C294.95 402.449 289.65 385.05 283.85 365.85C280.95 356.25 278.251 347.05 275.751 338.75C274.55 334.55 273.35 330.65 272.251 326.949C271.65 325.05 271.15 323.35 270.65 321.55C270.15 319.85 269.65 318.25 269.05 316.65C267.95 313.949 266.251 311.55 264.05 309.55C262.45 308.05 260.65 306.65 258.751 305.449C257.251 304.449 256.05 303.65 255.15 303.15L254.251 302.55C254.15 302.449 254.05 302.449 253.95 302.35C254.05 302.35 254.15 302.449 254.251 302.55L255.251 303.05C256.15 303.55 257.35 304.25 258.85 305.25C260.751 306.449 262.55 307.75 264.251 309.25C266.55 311.25 268.251 313.65 269.45 316.449C270.05 318.05 270.65 319.65 271.15 321.35C271.65 323.05 272.251 324.85 272.751 326.75L276.35 338.55C278.85 346.85 281.65 356.05 284.55 365.65C290.35 384.85 295.55 402.15 299.35 414.85L303.95 429.75L305.251 433.75C305.35 434.15 305.45 434.55 305.55 434.75C305.65 434.949 305.65 435.05 305.65 435.05Z" fill="#455A63"/>
<path d="M313.15 330.751C313.35 330.851 311.65 333.45 310.251 336.851C308.85 340.251 308.251 343.251 307.95 343.251C307.65 343.251 308.05 340.15 309.55 336.551C311.05 332.95 312.95 330.65 313.15 330.751Z" fill="#455A63"/>
<path d="M318.85 334.75C318.95 334.949 316.35 336.05 313.75 338.149C311.15 340.25 309.35 342.449 309.15 342.35C308.95 342.25 310.45 339.75 313.25 337.55C316.05 335.35 318.75 334.55 318.85 334.75Z" fill="#455A63"/>
<path d="M270.45 442.55C270.251 442.65 261.849 416.85 251.749 385.05C241.649 353.25 233.55 327.35 233.749 327.35C233.949 327.35 242.35 353.05 252.45 384.85C262.551 416.65 270.65 442.449 270.45 442.55Z" fill="#455A63"/>
<path d="M246.414 266.717C246.414 266.717 261.263 268.935 263.184 272.656C265.105 276.378 269.974 285.389 268.671 285.353C267.876 285.269 267.001 284.976 266.458 284.416L261.231 278.787C261.231 278.787 261.526 285.893 259.327 285.761C257.129 285.631 244.336 285.956 244.336 285.956L246.414 266.717Z" fill="#FFBD9D"/>
<path d="M180.103 250.944L179.409 284.437C179.685 291.443 185.588 296.949 192.594 296.673C193.294 296.685 193.996 296.598 194.599 296.409L247.182 286.54L247.464 265.041L202.115 273.038L201.919 250.231L180.103 250.944Z" fill="#847EFF"/>
<path d="M209.243 294.068C209.445 293.97 209.745 293.976 209.946 293.88L211.955 293.416L219.682 291.952L247.077 286.838L246.772 287.131L247.164 265.036L247.557 265.442L238.326 267.08L202.21 273.339L201.808 273.433L201.815 273.033C202.292 263.04 202.739 254.746 203.044 248.85C203.195 245.953 203.334 243.755 203.465 242.057C203.477 241.356 203.588 240.759 203.596 240.259C203.6 240.059 203.604 239.858 203.707 239.661L203.696 240.261L203.665 242.061C203.636 243.661 203.495 245.958 203.444 248.857C203.239 254.755 202.892 263.05 202.415 273.043L202.02 272.736L238.139 266.376L247.369 264.74L247.771 264.646L247.762 265.146L247.37 287.243L247.365 287.543L247.065 287.538L219.775 292.354L212.05 293.718L209.943 294.08L209.243 294.068Z" fill="#253138"/>
<path d="M241.95 288.346C241.869 287.245 241.889 286.146 242.008 285.047C242.144 283.049 242.293 280.251 242.348 277.152C242.403 274.052 242.453 271.252 242.39 269.152C242.31 268.049 242.329 266.951 242.449 265.851C242.729 266.958 242.91 268.06 242.89 269.161C243.055 271.164 243.103 274.064 243.048 277.165C242.993 280.263 242.743 283.059 242.506 285.157C242.389 286.155 242.169 287.25 241.95 288.346Z" fill="#F9F9F9"/>
<path d="M239.141 288.796C239.061 287.695 238.98 286.595 239.1 285.496C239.14 283.197 239.288 280.499 239.34 277.6L239.48 269.7C239.399 268.6 239.519 267.501 239.638 266.404C239.919 267.508 239.999 268.61 239.98 269.709C240.044 271.711 240.095 274.512 240.04 277.613C239.985 280.711 239.835 283.509 239.6 285.505C239.68 286.608 239.461 287.702 239.141 288.796Z" fill="#F9F9F9"/>
<path d="M232.35 292.449L333.95 293.449L352.95 239.849L278.95 240.349L261.85 288.55L232.35 288.949V292.449Z" fill="#455A63"/>
<path d="M309.35 271.25C307.05 270.949 305.55 268.85 305.85 266.55C306.15 264.25 308.25 262.75 310.55 263.05C312.85 263.35 314.35 265.449 314.05 267.75C313.75 269.949 311.65 271.55 309.35 271.25Z" fill="#9578F2"/>
<path d="M221.353 147.925C222.293 144.309 222.766 141.59 226.246 140.332C229.825 139.072 237.312 140.142 240.35 142.392C242.374 143.858 242.382 145.316 244.695 146.077C248.516 147.314 250.336 146.206 252.511 142.965C253.958 140.822 258.361 145.206 258.616 148.04C258.797 150.067 257.556 154.975 255.354 154.912C257.869 155.77 260.971 160.086 258.811 163.309C257.329 165.521 253.356 166.679 250.748 166.222C248.138 165.666 245.715 164.306 243.784 162.438C241.754 160.671 239.921 158.701 237.795 157.137C235.667 155.472 233.051 154.515 230.351 154.56C226.755 154.82 223.7 157.571 222.154 160.797C220.607 164.024 220.269 167.73 220.129 171.333C219.989 174.935 219.95 178.637 219.007 182.053C218.914 182.454 218.722 182.958 218.324 183.064C217.727 183.274 217.217 182.683 216.907 182.088C213.506 176.043 211.395 169.378 210.48 162.492C210.014 158.499 208.584 155.971 210.729 152.635C212.874 149.298 218.517 145.772 221.353 147.925Z" fill="#253138"/>
<path d="M216.112 164.298L214.887 204.825C214.701 211.729 215.771 221.912 226.67 221.731C236.157 220.873 238.708 211.929 238.901 205.525C238.952 202.524 239.008 199.922 239.103 199.621C239.103 199.621 249.393 198.949 250.524 188.729C251.042 183.82 251.272 173.614 251.317 164.312C251.351 154.411 243.912 146.033 233.997 145.198L232.995 145.115C222.388 144.791 216.134 153.597 216.112 164.298Z" fill="#FFBD9D"/>
<path d="M239.299 199.417C234.593 199.096 230.064 197.371 226.314 194.433C226.314 194.433 228.84 201.992 239.042 202.022L239.299 199.417Z" fill="#EB996D"/>
<path d="M247.762 170.873C247.675 171.674 246.985 172.286 246.184 172.199C245.384 172.212 244.772 171.522 244.761 170.823C244.847 170.021 245.537 169.409 246.339 169.496C247.139 169.483 247.749 170.073 247.762 170.873Z" fill="#253138"/>
<path d="M248.796 169.155C248.6 169.358 247.583 168.375 245.982 168.302C244.38 168.228 243.191 168.848 243.087 168.65C242.984 168.452 243.181 168.248 243.775 167.938C244.469 167.527 245.365 167.312 246.167 167.399C246.968 167.485 247.773 167.772 248.383 168.362C248.688 168.657 248.895 169.053 248.796 169.155Z" fill="#253138"/>
<path d="M232.409 170.028C232.322 170.83 231.632 171.441 230.831 171.354C230.031 171.368 229.419 170.678 229.406 169.878C229.492 169.076 230.182 168.465 230.984 168.551C231.785 168.638 232.395 169.228 232.409 170.028Z" fill="#253138"/>
<path d="M233.375 168.012C233.179 168.215 232.162 167.232 230.561 167.158C228.959 167.085 227.769 167.705 227.666 167.507C227.563 167.308 227.759 167.105 228.354 166.795C229.048 166.383 229.944 166.168 230.746 166.255C231.547 166.342 232.352 166.628 232.962 167.218C233.269 167.613 233.375 168.012 233.375 168.012Z" fill="#253138"/>
<path d="M237.978 180.137C238.874 179.922 239.674 179.908 240.574 179.893C240.974 179.887 241.374 179.88 241.469 179.579C241.562 179.177 241.456 178.779 241.349 178.38C241.032 177.385 240.714 176.291 240.396 175.196C239.121 170.716 238.26 167.03 238.46 167.027C238.66 167.024 239.819 170.605 241.094 175.084C241.412 176.179 241.731 177.274 241.947 178.27C242.156 178.767 242.166 179.367 241.974 179.87C241.879 180.172 241.582 180.377 241.282 180.382L240.582 180.393C239.683 180.408 238.781 180.323 237.978 180.137Z" fill="#253138"/>
<path d="M234.946 183.532C235.146 183.529 235.353 184.926 237.035 185.704C238.635 186.459 240.818 184.82 240.821 185.02C240.824 185.22 239.968 186.088 239.339 186.399C238.627 186.702 237.271 187.04 236.417 186.685C235.526 186.332 234.622 185.55 234.606 184.551C234.594 183.851 234.846 183.534 234.946 183.532Z" fill="#253138"/>
<path d="M234.274 161.896C234.08 162.299 232.574 161.924 230.676 162.056C228.778 162.187 227.283 162.512 227.076 162.116C226.973 161.917 227.266 161.512 227.961 161.201C229.646 160.273 231.746 160.238 233.46 161.109C234.065 161.399 234.372 161.794 234.274 161.896Z" fill="#253138"/>
<path d="M248.62 164.557C248.325 164.862 247.217 164.381 246.015 164.301C244.814 164.221 243.616 164.341 243.409 163.944C243.306 163.746 243.501 163.442 243.996 163.134C244.69 162.823 245.487 162.609 246.189 162.698C246.89 162.786 247.595 163.074 248.203 163.564C248.612 164.057 248.717 164.356 248.62 164.557Z" fill="#253138"/>
<path d="M216.238 171.897C216.036 171.801 209.392 169.211 209.009 176.218C208.625 183.226 215.709 182.208 215.706 182.008C215.702 181.808 216.238 171.897 216.238 171.897Z" fill="#FFBD9D"/>
<path d="M213.758 179.14C213.758 179.14 213.659 179.241 213.461 179.345C213.163 179.45 212.863 179.455 212.56 179.26C211.648 178.575 211.232 177.582 211.313 176.48C211.303 175.88 211.493 175.277 211.785 174.772C211.978 174.369 212.271 173.964 212.77 173.855C213.07 173.85 213.371 173.945 213.476 174.244C213.58 174.442 213.481 174.544 213.583 174.642C213.685 174.74 213.781 174.539 213.676 174.24C213.673 174.04 213.571 173.942 213.47 173.844C213.266 173.647 213.066 173.65 212.766 173.655C212.168 173.765 211.675 174.174 211.383 174.679C211.093 175.284 210.903 175.887 210.815 176.588C210.738 177.99 211.461 179.378 212.466 179.661C212.868 179.755 213.268 179.748 213.564 179.543C213.761 179.34 213.759 179.24 213.758 179.14Z" fill="#EB996D"/>
<path d="M253.785 162.371C249.098 163.149 244.372 161.628 241.015 158.283C238.776 155.92 237.123 152.747 234.101 151.497C231.987 150.732 229.69 150.871 227.706 151.804C225.721 152.737 223.944 154.167 222.471 155.791C223.961 161.167 222.155 166.798 220.34 172.029C220.151 172.632 219.859 173.137 219.365 173.546C218.477 174.16 217.265 173.481 216.652 172.691C215.729 171.306 215.2 169.614 215.174 168.015C214.811 164.22 215.146 160.414 216.286 156.695C217.425 153.075 219.57 149.739 222.53 147.289C226.38 144.325 231.16 143.045 235.97 143.565C240.679 144.087 245.215 146.212 248.669 149.454C250.394 150.926 251.724 152.704 252.558 154.79" fill="#253138"/>
<path d="M391.25 196.25L372.25 275.85H377.55L396.35 196.25H391.25Z" fill="#253138"/>
<path d="M383.95 248.65C383.649 250.15 392.55 293.55 392.55 293.55H388.25L381.45 259.15L383.95 248.65Z" fill="#253138"/>
<path d="M358.15 350.95H447.35V445.551H358.15V350.95Z" fill="#847EFF"/>
<path d="M447.35 364.75H451.75V369.15H447.35V364.75Z" fill="#253138"/>
<path d="M447.35 378.75H451.75V383.15H447.35V378.75Z" fill="#253138"/>
<path d="M447.35 392.65H451.75V397.05H447.35V392.65Z" fill="#253138"/>
<path d="M447.35 406.549H451.75V410.949H447.35V406.549Z" fill="#253138"/>
<path d="M451.95 393.85C452.349 393.749 452.849 393.65 453.25 393.55C454.45 393.35 455.75 393.15 457.05 393.15C458.95 393.15 460.849 393.65 462.45 394.55C464.55 395.85 465.649 398.15 465.45 400.55C465.349 401.749 464.95 402.95 464.349 403.95C463.75 404.95 462.95 405.749 462.05 406.35C460.55 407.45 458.75 408.15 456.849 408.45C455.649 408.65 454.349 408.65 453.05 408.55C452.55 408.55 452.149 408.45 451.649 408.35H453.05C454.25 408.35 455.55 408.249 456.75 408.05C458.55 407.749 460.25 407.05 461.75 405.95C463.55 404.65 464.75 402.65 464.95 400.45C465.149 398.249 464.149 396.05 462.149 394.85C460.55 393.85 458.849 393.35 456.95 393.35C455.75 393.35 454.45 393.35 453.25 393.55C452.849 393.85 452.349 393.95 451.95 393.85Z" fill="#253138"/>
<path d="M450.85 380.05C450.951 379.949 451.15 379.85 451.25 379.85C451.65 379.65 452.15 379.449 452.55 379.35C454.25 378.85 455.951 378.749 457.65 379.05C458.25 379.15 458.75 379.35 459.25 379.65C459.85 380.05 460.25 380.55 460.35 381.249C460.85 383.449 459.65 385.749 457.451 386.65C456.65 386.949 455.75 386.949 455.05 386.55C454.25 386.15 453.75 385.35 453.65 384.449C453.65 383.55 454.25 382.65 455.05 382.249C455.85 381.85 456.75 381.749 457.55 381.949C458.35 382.15 459.15 382.449 459.75 383.05C460.951 384.05 461.75 385.449 461.951 387.05C462.05 388.449 461.65 389.949 460.85 391.05C460.15 392.05 459.15 392.85 458.15 393.35C456.55 394.15 454.85 394.55 453.15 394.65C452.55 394.65 452.05 394.749 451.75 394.749H451.25C451.25 394.749 451.951 394.65 453.15 394.55C454.85 394.35 456.451 393.85 457.951 393.15C458.951 392.55 459.85 391.85 460.55 390.949C461.35 389.949 461.65 388.55 461.55 387.35C461.35 385.949 460.65 384.65 459.451 383.749C458.85 383.249 458.15 382.949 457.451 382.749C456.75 382.55 455.951 382.65 455.25 382.949C454.55 383.249 454.15 383.949 454.15 384.65C454.25 385.35 454.65 385.949 455.25 386.249C455.85 386.55 456.55 386.65 457.25 386.35C457.85 386.15 458.451 385.65 458.85 385.15C459.75 384.15 460.15 382.85 459.85 381.55C459.451 380.449 458.55 379.65 457.35 379.55C455.65 379.15 453.951 379.249 452.35 379.65C451.451 379.749 450.85 380.15 450.85 380.05Z" fill="#253138"/>
<path d="M450.85 366.55C451.15 366.449 451.55 366.351 451.85 366.351C452.75 366.25 453.65 366.351 454.55 366.651C455.85 367.051 456.951 367.851 457.85 368.851C458.951 370.151 459.55 371.749 459.55 373.449C459.65 375.15 459.15 376.75 458.15 378.151C457.35 379.25 456.25 380.05 454.951 380.55C454.15 380.949 453.25 381.05 452.35 381.05C452.05 381.05 451.65 381.05 451.35 380.949C452.55 380.949 453.75 380.651 454.85 380.151C456.05 379.651 457.05 378.75 457.85 377.75C459.65 375.151 459.55 371.55 457.55 369.05C456.75 368.05 455.65 367.351 454.451 366.851C453.25 366.651 452.05 366.449 450.85 366.55Z" fill="#253138"/>
<path d="M384.649 300.749C384.95 301.35 385.251 301.949 385.451 302.55C385.951 304.35 386.349 306.149 386.649 307.949C387.049 310.35 387.349 313.249 387.649 316.55C387.95 319.85 388.25 323.749 388.75 328.05C388.849 329.05 389.049 330.149 389.25 331.249C389.45 332.35 389.75 333.449 390.25 334.449C390.849 335.449 391.55 336.35 392.451 337.149C395.15 339.749 398.75 341.449 402.549 341.85C405.25 342.149 407.951 341.649 410.451 340.449C413.05 339.149 414.849 336.85 415.549 334.05C415.849 332.649 415.75 331.149 415.25 329.85C414.649 328.449 413.751 327.35 412.451 326.449C411.15 325.649 409.75 325.149 408.25 325.05C406.75 324.949 405.251 325.449 403.951 326.249C403.35 326.649 402.85 327.249 402.451 327.949C402.15 328.649 402.049 329.35 402.149 330.149C402.549 331.649 403.55 332.949 404.951 333.649C406.35 334.35 407.95 334.749 409.549 334.949C411.149 335.149 412.75 335.249 414.25 335.249C417.349 335.249 420.45 335.05 423.549 334.749C429.649 334.05 435.549 333.05 441.149 333.05C446.75 333.05 452.25 333.749 456.849 336.05C459.049 337.149 461.049 338.55 462.649 340.449C464.149 342.149 465.149 344.249 465.649 346.449C466.45 350.249 465.849 354.249 463.849 357.649C462.349 360.149 460.35 362.35 457.951 363.949C456.451 364.949 454.75 365.85 453.049 366.449C452.45 366.649 451.849 366.85 451.25 366.949L451.75 366.749C452.049 366.649 452.549 366.449 453.049 366.249C454.75 365.55 456.349 364.749 457.849 363.649C460.25 362.05 462.25 359.85 463.649 357.35C465.45 353.949 466.049 350.05 465.25 346.35C464.75 344.149 463.75 342.149 462.25 340.55C460.649 338.749 458.649 337.35 456.549 336.35C452.049 334.149 446.649 333.35 441.049 333.449C435.45 333.55 429.55 334.449 423.451 335.149C420.35 335.55 417.25 335.749 414.049 335.649C412.45 335.649 410.849 335.55 409.25 335.35C407.649 335.249 405.95 334.749 404.549 334.05C403.049 333.249 401.95 331.85 401.549 330.149C401.349 329.35 401.549 328.449 401.849 327.649C402.25 326.85 402.751 326.249 403.451 325.749C404.751 324.749 406.45 324.35 408.049 324.35C409.649 324.449 411.25 324.949 412.549 325.85C413.849 326.749 414.849 327.949 415.549 329.449C416.149 330.949 416.25 332.449 415.849 333.949C415.149 336.85 413.15 339.35 410.451 340.649C407.951 341.85 405.049 342.35 402.349 342.05C399.75 341.75 397.251 340.949 394.951 339.55C393.85 338.85 392.85 338.149 391.951 337.25C391.05 336.449 390.25 335.449 389.649 334.449C389.149 333.35 388.849 332.25 388.649 331.149C388.45 330.05 388.25 328.949 388.149 327.949C387.649 323.75 387.349 319.85 387.049 316.449C386.75 313.05 386.45 310.149 386.149 307.85C385.95 306.05 385.549 304.25 385.049 302.449C384.95 301.949 384.75 301.55 384.549 301.05C384.75 301.05 384.649 300.85 384.649 300.749Z" fill="#253138"/>
<path d="M442.349 441.65V441.25V440.05V435.35C442.349 431.25 442.35 425.25 442.25 417.65C442.25 402.45 442.149 380.75 442.149 354.75L442.349 354.95H361.75L362.049 354.65V441.55L361.849 441.35L420.25 441.45L436.649 441.55H440.951L436.549 441.65L420.25 441.75L361.649 441.85H361.451V441.65V354.75V354.45H361.75H442.349H442.549V354.65C442.549 380.65 442.451 402.45 442.451 417.65C442.451 425.25 442.45 431.25 442.349 435.35V439.95V441.15V441.65Z" fill="#253138"/>
<path d="M419.55 365.351C419.55 365.551 419.35 365.75 419.15 365.75C418.95 365.75 418.75 365.651 418.65 365.351C418.55 365.051 418.75 364.951 419.05 364.851H419.15C419.35 364.951 419.55 365.151 419.55 365.351Z" fill="#253138"/>
<path d="M421.85 365.351C421.85 365.551 421.65 365.75 421.451 365.75C421.25 365.75 421.05 365.651 420.951 365.351C420.85 365.051 421.05 364.951 421.35 364.851H421.451C421.65 364.951 421.85 365.151 421.85 365.351Z" fill="#253138"/>
<path d="M424.15 365.351C424.15 365.551 423.951 365.75 423.751 365.75C423.55 365.75 423.35 365.651 423.251 365.351C423.15 365.051 423.35 364.951 423.65 364.851H423.751C423.951 364.951 424.15 365.151 424.15 365.351Z" fill="#253138"/>
<path d="M426.451 365.35C426.451 365.55 426.25 365.749 426.05 365.749C425.849 365.749 425.649 365.55 425.649 365.35C425.649 365.15 425.849 364.95 426.05 364.95C426.25 364.95 426.451 365.15 426.451 365.35Z" fill="#253138"/>
<path d="M428.65 365.351C428.65 365.551 428.451 365.75 428.251 365.75C428.05 365.75 427.85 365.451 427.85 365.25C427.85 365.051 428.05 364.951 428.251 364.851C428.55 364.951 428.65 365.151 428.65 365.351Z" fill="#253138"/>
<path d="M430.951 365.351C430.951 365.551 430.75 365.75 430.55 365.75C430.349 365.75 430.149 365.451 430.149 365.25C430.149 365.051 430.349 364.951 430.55 364.851C430.75 364.951 430.951 365.151 430.951 365.351Z" fill="#253138"/>
<path d="M433.25 365.351C433.25 365.551 433.05 365.75 432.85 365.75C432.649 365.75 432.45 365.451 432.45 365.25C432.45 365.051 432.649 364.951 432.85 364.851C433.05 364.951 433.25 365.151 433.25 365.351Z" fill="#253138"/>
<path d="M431.751 366.55C431.972 366.55 432.15 366.729 432.15 366.949C432.15 367.17 431.972 367.35 431.751 367.35C431.53 367.35 431.35 367.17 431.35 366.949C431.35 366.729 431.53 366.55 431.751 366.55Z" fill="#253138"/>
<path d="M429.451 366.55C429.672 366.55 429.85 366.729 429.85 366.949C429.85 367.17 429.672 367.35 429.451 367.35C429.229 367.35 429.05 367.17 429.05 366.949C429.05 366.729 429.229 366.55 429.451 366.55Z" fill="#253138"/>
<path d="M427.55 366.95C427.55 367.15 427.35 367.35 427.15 367.35C426.95 367.35 426.75 367.15 426.75 366.95C426.75 366.75 426.95 366.551 427.15 366.551C427.35 366.45 427.55 366.65 427.55 366.95Z" fill="#253138"/>
<path d="M424.751 366.55C424.972 366.55 425.15 366.729 425.15 366.949C425.15 367.17 424.972 367.35 424.751 367.35C424.53 367.35 424.35 367.17 424.35 366.949C424.35 366.729 424.53 366.55 424.751 366.55Z" fill="#253138"/>
<path d="M422.451 366.55C422.672 366.55 422.85 366.729 422.85 366.949C422.85 367.17 422.672 367.35 422.451 367.35C422.229 367.35 422.05 367.17 422.05 366.949C422.05 366.729 422.229 366.55 422.451 366.55Z" fill="#253138"/>
<path d="M420.55 366.95C420.55 367.15 420.35 367.35 420.15 367.35C419.95 367.35 419.75 367.15 419.75 366.95C419.75 366.75 419.95 366.551 420.15 366.551C420.35 366.45 420.55 366.65 420.55 366.95Z" fill="#253138"/>
<path d="M419.55 368.65C419.55 368.85 419.35 369.05 419.15 369.05C418.95 369.05 418.75 368.85 418.75 368.65C418.75 368.45 418.95 368.25 419.15 368.25C419.35 368.25 419.55 368.45 419.55 368.65Z" fill="#253138"/>
<path d="M421.85 368.65C421.85 368.85 421.65 369.05 421.451 369.05C421.25 369.05 421.05 368.85 421.05 368.65C421.05 368.45 421.25 368.25 421.451 368.25C421.65 368.25 421.85 368.45 421.85 368.65Z" fill="#253138"/>
<path d="M424.15 368.65C424.15 368.85 423.951 369.05 423.751 369.05C423.55 369.05 423.35 368.85 423.35 368.65C423.35 368.45 423.55 368.25 423.751 368.25C423.951 368.25 424.15 368.45 424.15 368.65Z" fill="#253138"/>
<path d="M426.45 368.65C426.45 368.85 426.149 369.05 425.95 369.05C425.75 369.05 425.649 368.85 425.55 368.65C425.55 368.45 425.649 368.25 425.95 368.15C426.25 368.05 426.349 368.25 426.45 368.55V368.65Z" fill="#253138"/>
<path d="M428.65 368.65C428.65 368.85 428.451 369.05 428.251 369.05C428.05 369.05 427.85 368.85 427.85 368.65C427.85 368.45 428.05 368.25 428.251 368.25C428.55 368.25 428.65 368.45 428.65 368.65Z" fill="#253138"/>
<path d="M430.951 368.65C430.951 368.85 430.75 369.05 430.55 369.05C430.349 369.05 430.149 368.85 430.149 368.65C430.149 368.45 430.349 368.25 430.55 368.25C430.75 368.25 430.951 368.45 430.951 368.65Z" fill="#253138"/>
<path d="M433.25 368.65C433.25 368.85 433.05 369.05 432.85 369.05C432.649 369.05 432.45 368.85 432.45 368.65C432.45 368.45 432.649 368.25 432.85 368.25C433.05 368.25 433.25 368.45 433.25 368.65Z" fill="#253138"/>
<path d="M432.25 370.15C432.25 370.35 432.05 370.55 431.85 370.55C431.649 370.55 431.45 370.35 431.45 370.15C431.45 369.95 431.649 369.75 431.85 369.75C432.05 369.75 432.25 369.95 432.25 370.15Z" fill="#253138"/>
<path d="M429.85 370.15C429.85 370.35 429.65 370.55 429.451 370.55C429.25 370.55 429.05 370.35 429.05 370.15C429.05 369.95 429.25 369.75 429.451 369.75C429.65 369.75 429.85 369.95 429.85 370.15Z" fill="#253138"/>
<path d="M427.55 370.15C427.55 370.35 427.35 370.55 427.15 370.55C426.95 370.55 426.75 370.35 426.75 370.15C426.75 369.95 426.95 369.75 427.15 369.75C427.35 369.75 427.55 369.95 427.55 370.15Z" fill="#253138"/>
<path d="M425.25 370.15C425.25 370.35 425.05 370.55 424.85 370.55C424.649 370.55 424.45 370.35 424.45 370.15C424.45 369.95 424.649 369.75 424.85 369.75C425.05 369.75 425.25 369.95 425.25 370.15Z" fill="#253138"/>
<path d="M422.849 370.15C422.849 370.35 422.75 370.55 422.451 370.65C422.15 370.75 422.05 370.55 421.951 370.25V370.15C421.951 369.95 422.25 369.75 422.451 369.75C422.75 369.85 422.849 369.95 422.849 370.15Z" fill="#253138"/>
<path d="M420.55 370.15C420.55 370.35 420.35 370.55 420.15 370.55C419.95 370.55 419.75 370.35 419.75 370.15C419.75 369.95 419.95 369.75 420.15 369.75C420.35 369.75 420.55 369.95 420.55 370.15Z" fill="#253138"/>
<path d="M419.55 371.949C419.55 372.149 419.35 372.349 419.15 372.349C418.95 372.349 418.75 372.149 418.75 371.949C418.75 371.749 418.95 371.55 419.15 371.55C419.35 371.55 419.55 371.649 419.55 371.949Z" fill="#253138"/>
<path d="M421.85 371.949C421.85 372.149 421.65 372.349 421.451 372.349C421.25 372.349 421.05 372.149 421.05 371.949C421.05 371.749 421.25 371.55 421.451 371.55C421.65 371.55 421.85 371.649 421.85 371.949Z" fill="#253138"/>
<path d="M424.15 371.949C424.15 372.149 423.951 372.349 423.751 372.349C423.55 372.349 423.35 372.149 423.35 371.949C423.35 371.749 423.55 371.55 423.751 371.55C423.951 371.55 424.15 371.649 424.15 371.949Z" fill="#253138"/>
<path d="M426.45 371.95C426.45 372.15 426.349 372.35 426.05 372.45C425.75 372.551 425.649 372.35 425.55 372.051V371.95C425.55 371.75 425.849 371.551 426.05 371.551C426.25 371.551 426.349 371.75 426.45 371.95Z" fill="#253138"/>
<path d="M428.65 371.95C428.65 372.15 428.451 372.35 428.251 372.35C428.05 372.35 427.85 372.15 427.85 371.95C427.85 371.75 428.05 371.551 428.251 371.551C428.55 371.45 428.65 371.65 428.65 371.95Z" fill="#253138"/>
<path d="M430.951 371.95C430.951 372.15 430.75 372.35 430.55 372.35C430.349 372.35 430.149 372.15 430.149 371.95C430.149 371.75 430.349 371.551 430.55 371.551C430.75 371.45 430.951 371.65 430.951 371.95Z" fill="#253138"/>
<path d="M433.25 371.95C433.25 372.15 433.05 372.35 432.85 372.35C432.649 372.35 432.45 372.15 432.45 371.95C432.45 371.75 432.649 371.551 432.85 371.551C433.05 371.45 433.25 371.65 433.25 371.95Z" fill="#253138"/>
<path d="M431.751 373.05C431.972 373.05 432.15 373.229 432.15 373.449C432.15 373.67 431.972 373.85 431.751 373.85C431.53 373.85 431.35 373.67 431.35 373.449C431.35 373.229 431.53 373.05 431.751 373.05Z" fill="#253138"/>
<path d="M429.451 373.05C429.672 373.05 429.85 373.229 429.85 373.449C429.85 373.67 429.672 373.85 429.451 373.85C429.229 373.85 429.05 373.67 429.05 373.449C429.05 373.229 429.229 373.05 429.451 373.05Z" fill="#253138"/>
<path d="M427.55 373.45C427.55 373.65 427.35 373.85 427.15 373.85C426.95 373.85 426.75 373.75 426.65 373.45C426.55 373.15 426.75 373.051 427.05 372.95H427.15C427.35 373.051 427.55 373.25 427.55 373.45Z" fill="#253138"/>
<path d="M424.751 373.05C424.972 373.05 425.15 373.229 425.15 373.449C425.15 373.67 424.972 373.85 424.751 373.85C424.53 373.85 424.35 373.67 424.35 373.449C424.35 373.229 424.53 373.05 424.751 373.05Z" fill="#253138"/>
<path d="M422.451 373.05C422.672 373.05 422.85 373.229 422.85 373.449C422.85 373.67 422.672 373.85 422.451 373.85C422.229 373.85 422.05 373.67 422.05 373.449C422.05 373.229 422.229 373.05 422.451 373.05Z" fill="#253138"/>
<path d="M420.55 373.45C420.55 373.65 420.35 373.85 420.15 373.85C419.95 373.85 419.75 373.551 419.75 373.35C419.75 373.15 419.95 373.051 420.15 372.95C420.35 373.051 420.55 373.25 420.55 373.45Z" fill="#253138"/>
<path d="M388.05 271.95C388.65 271.95 389.15 272.051 389.65 272.25C391.15 272.75 392.55 273.65 393.55 274.85C395.15 276.75 396.35 279.051 397.05 281.45C398.05 284.65 398.75 287.85 399.25 291.15C400.35 299.65 400.55 308.35 399.85 316.95C399.75 319.45 398.95 321.95 397.65 324.051C396.95 325.15 395.95 326.051 394.85 326.75C393.65 327.45 392.35 327.85 390.95 327.65C389.55 327.551 388.25 326.95 387.25 325.95C386.75 325.45 386.35 324.85 386.15 324.15C385.95 323.45 385.95 322.75 386.15 322.051C386.55 320.65 387.55 319.45 388.95 318.95C389.65 318.65 390.45 318.65 391.15 318.95C391.85 319.25 392.45 319.65 392.95 320.25C393.85 321.45 394.15 322.95 393.95 324.35C393.75 325.75 393.25 327.051 392.45 328.25C388.35 335.45 379.25 338.15 371.95 334.15C369.85 332.95 368.05 331.45 366.55 329.551C365.15 327.75 364.05 325.85 363.25 323.75C361.95 319.95 361.15 315.95 361.05 311.95C360.85 308.25 361.05 304.95 360.65 302.051C360.45 300.75 360.15 299.45 359.75 298.15C359.35 297.051 358.75 296.15 358.05 295.25C357.05 294.051 355.85 293.051 354.35 292.45C353.85 292.25 353.25 292.15 352.75 292.051C353.35 292.051 353.85 292.15 354.35 292.35C355.85 292.85 357.15 293.85 358.15 295.051C358.85 295.95 359.45 296.95 359.95 298.051C360.45 299.35 360.75 300.65 360.95 302.051C361.35 304.95 361.15 308.25 361.35 311.95C361.45 315.95 362.25 319.85 363.55 323.65C364.35 325.75 365.45 327.65 366.75 329.35C368.15 331.15 369.95 332.75 372.05 333.85C379.15 337.65 387.95 335.051 391.85 328.051C392.55 326.85 393.05 325.65 393.25 324.25C393.45 322.95 393.15 321.551 392.35 320.45C391.95 319.95 391.45 319.551 390.85 319.25C390.25 319.051 389.55 319.051 388.95 319.25C387.75 319.75 386.85 320.75 386.45 322.051C386.15 323.35 386.55 324.65 387.45 325.551C388.35 326.45 389.55 327.051 390.85 327.15C392.15 327.25 393.35 326.95 394.45 326.25C395.55 325.551 396.45 324.75 397.15 323.65C398.45 321.551 399.15 319.15 399.35 316.75C400.05 308.25 399.85 299.65 398.85 291.15C398.35 287.85 397.65 284.65 396.75 281.551C396.15 279.15 394.95 276.95 393.35 275.051C392.35 273.85 391.05 272.95 389.55 272.45C389.15 272.25 388.55 272.051 388.05 271.95Z" fill="#DFDFDF"/>
<path d="M346.95 286.45H380.148V292.75H346.95V286.45Z" fill="#DFDFDF"/>
<path d="M97.05 351.85H140.35V445.15H97.05V351.85Z" fill="#253138"/>
<path d="M136.65 435.25V434.851V433.65V429.15C136.65 425.25 136.65 419.65 136.55 412.45C136.55 398.25 136.45 378.25 136.45 354.95L136.65 355.15H100.45L100.75 354.851C100.75 386.051 100.75 414.351 100.65 435.051L100.45 434.851L126.95 434.95H134.15H136.05C136.55 435.25 136.75 435.25 136.65 435.25L136.15 435.15H134.25H127.05L100.45 435.25H100.25V435.051C100.25 414.25 100.25 385.95 100.15 354.851V354.65H136.95V354.851C136.95 378.25 136.85 398.25 136.85 412.551C136.85 419.65 136.85 425.25 136.75 429.15V433.551V434.65C136.75 434.851 136.65 435.25 136.65 435.25Z" fill="#455A63"/>
<path d="M134.45 361.85V360.85C134.45 360.249 134.45 359.249 134.35 358.15L134.45 358.249C128.85 358.35 116.85 358.35 102.95 358.35L103.25 358.05V359.95V361.749L103.05 361.45C111.85 361.45 119.75 361.55 125.35 361.55L132.05 361.65H133.85H134.55H133.95H132.15L125.55 361.749C119.85 361.85 111.95 361.85 103.05 361.85H102.75V357.95L103.05 357.65C116.95 357.65 128.95 357.749 134.55 357.749V357.85C134.55 359.05 134.55 359.95 134.45 360.65V361.85Z" fill="#455A63"/>
<path d="M106.05 364.551C106.05 364.651 105.35 364.851 104.65 364.851C103.95 364.851 103.15 364.75 103.15 364.551C103.15 364.351 103.85 364.25 104.65 364.25C105.45 364.25 106.05 364.351 106.05 364.551Z" fill="#455A63"/>
<path d="M133.65 369.35C133.65 369.45 126.95 369.65 118.65 369.65C110.35 369.65 103.65 369.55 103.65 369.35C103.65 369.15 110.35 369.05 118.65 369.05C126.95 369.05 133.65 369.15 133.65 369.35Z" fill="#455A63"/>
<path d="M133.75 375.15C133.75 375.25 127.15 375.45 119.05 375.45C110.95 375.45 104.35 375.35 104.35 375.15C104.35 374.95 110.95 374.85 119.05 374.85C127.15 374.85 133.75 374.95 133.75 375.15Z" fill="#455A63"/>
<path d="M118.65 386.35C119.975 386.35 121.05 387.424 121.05 388.749C121.05 390.076 119.975 391.15 118.65 391.15C117.324 391.15 116.25 390.076 116.25 388.749C116.25 387.424 117.324 386.35 118.65 386.35Z" fill="#847EFF"/>
<path d="M111.85 388.65C110.85 388.95 109.75 388.95 108.65 388.95C107.55 389.05 106.55 388.95 105.55 388.65C106.55 388.35 107.65 388.35 108.75 388.35C109.75 388.35 110.85 388.35 111.85 388.65Z" fill="#455A63"/>
<path d="M131.25 387.95C130.25 388.25 129.25 388.25 128.25 388.25C127.25 388.35 126.25 388.25 125.25 387.95C126.25 387.65 127.25 387.65 128.25 387.65C129.25 387.65 130.25 387.75 131.25 387.95Z" fill="#455A63"/>
<path d="M98.55 398.65C98.05 398.55 97.45 398.45 96.95 398.35C95.45 397.95 93.95 397.25 92.65 396.35C90.55 394.95 88.85 393.05 87.45 390.95C85.75 388.15 84.45 385.05 83.65 381.75C82.65 377.85 82.25 373.85 82.45 369.85C82.75 365.15 84.25 360.75 87.05 356.95C88.55 354.95 90.35 353.15 92.45 351.75C93.55 351.05 94.75 350.45 95.95 350.05C97.25 349.65 98.45 349.35 99.85 349.15C102.45 348.75 105.15 348.85 107.85 348.65C110.55 348.55 113.25 347.95 115.75 346.85C118.25 345.75 120.05 343.45 120.65 340.85C121.65 336.35 118.85 331.75 114.35 330.75C113.65 330.55 112.95 330.55 112.25 330.55C111.05 330.65 109.85 331.05 108.95 331.75C108.05 332.45 107.55 333.55 107.55 334.75C107.85 337.05 109.65 338.85 112.05 339.05C114.25 339.05 116.35 338.15 117.75 336.45C119.05 334.85 120.05 333.05 120.55 331.05C121.05 329.25 121.45 327.35 121.75 325.45C122.45 319.75 122.65 313.95 122.25 308.15C122.15 306.15 122.05 304.55 122.05 303.45C122.05 302.95 122.05 302.55 121.95 302.25V301.85C121.95 301.95 122.05 302.15 122.05 302.25C122.05 302.55 122.15 302.95 122.15 303.45C122.25 304.55 122.35 306.15 122.45 308.15C122.85 313.95 122.75 319.75 122.05 325.55C121.75 327.45 121.45 329.35 120.95 331.25C120.45 333.35 119.45 335.25 118.15 336.85C116.65 338.65 114.45 339.65 112.05 339.55C109.45 339.35 107.45 337.35 107.15 334.85C107.05 333.55 107.65 332.25 108.75 331.45C109.75 330.65 111.05 330.15 112.35 330.05C117.35 329.95 121.35 333.95 121.45 338.95C121.45 341.05 120.75 343.05 119.45 344.75C118.55 345.85 117.35 346.75 116.15 347.35C113.65 348.55 110.85 349.15 108.05 349.25C105.35 349.45 102.65 349.35 100.05 349.75C98.75 349.95 97.55 350.25 96.25 350.65C95.05 351.05 93.95 351.65 92.85 352.35C90.75 353.65 88.95 355.35 87.55 357.35C84.85 361.05 83.35 365.45 83.05 370.05C82.75 374.05 83.15 378.05 84.15 381.85C84.85 385.05 86.15 388.15 87.85 390.95C89.15 393.05 90.85 394.85 92.85 396.35C94.15 397.25 95.55 397.95 97.05 398.45C97.55 398.55 97.95 398.65 98.25 398.75C98.25 398.55 98.45 398.55 98.55 398.65Z" fill="#253138"/>
<path d="M83.75 207.15H186.35V277.65H83.75V207.15Z" fill="#253138"/>
<path d="M127.15 268.05H141.15V294.65H127.15V268.05Z" fill="#253138"/>
<path d="M58.9 377.337C62.5 375.638 64.9292 375.426 68.3412 375.677C70.4732 375.834 74.1226 376.669 76.0546 377.705C77.9676 378.73 80.4102 381.4 78.8102 382.799C77.7102 383.499 72.475 382.837 71.175 382.737C68.075 382.737 65.158 382.401 63.145 384.626C61.745 385.727 61.3564 387.864 59.7564 388.465C58.0564 388.864 55.55 389.35 54.65 387.751C53.85 386.251 53.0764 384.997 53.5764 383.297C53.9764 380.896 56.8 378.438 58.9 377.337Z" fill="#847EFF"/>
<path d="M50.2516 361.507C52.4516 364.608 55.575 363.577 57.575 361.676C59.575 359.776 60.688 355.327 61.388 352.626C62.438 348.251 62.6973 345.989 63.15 340.065C63.3839 337.915 63.473 331.504 62.173 330.104C60.873 328.705 59.5473 331.263 58.1973 332.976C56.7353 334.888 55.8966 336.585 54.8156 338.66C52.5026 343.097 50.437 348.812 49.387 352.05C48.431 354.999 48.4516 359.007 50.2516 361.507Z" fill="#847EFF"/>
<path d="M44.05 365.85C46.35 362.85 46.513 359.326 45.413 355.826C44.213 352.326 42.2651 348.254 39.3651 345.855C35.6111 342.539 32.7398 340.781 30.2018 340.107C27.8018 339.406 24.0169 339.471 21.5419 339.621C19.8419 339.724 15.4493 341.65 14.5493 343.15C13.3493 345.35 18.1897 347.492 20.4277 348.619C24.0277 350.431 26.9196 354.843 29.3085 358.566C31.5085 361.366 32.113 366.009 35.138 367.525C38.2377 369.097 42.75 367.75 44.45 365.451" fill="#847EFF"/>
<path d="M49.85 408.35C49.95 407.85 50.05 407.451 50.05 406.951C50.15 405.951 50.25 404.65 50.45 403.05C50.65 401.15 50.95 399.25 51.35 397.35C51.85 395.05 52.55 392.85 53.45 390.65C54.35 388.451 55.45 386.451 56.85 384.65C57.95 383.15 59.45 381.85 61.15 381.05C62.25 380.451 63.55 380.05 64.75 379.951C65.25 379.951 65.65 379.85 66.15 379.75H64.75C63.45 379.85 62.15 380.15 60.95 380.75C59.15 381.55 57.65 382.85 56.45 384.35C54.95 386.25 53.85 388.25 52.95 390.55C52.05 392.75 51.45 395.05 50.95 397.35C50.55 399.25 50.35 401.15 50.15 403.05C50.05 404.65 49.95 406.05 49.95 406.951C49.85 407.35 49.85 407.85 49.85 408.35Z" fill="#253138"/>
<path d="M50.15 405.35V404.75V402.85C50.15 401.25 50.15 398.85 50.25 395.951C50.35 390.15 50.85 383.85 51.85 375.05C52.75 366.75 54.05 357.05 55.35 350.75C55.65 349.35 55.85 348.05 56.15 346.951C56.45 345.85 56.65 344.85 56.85 344.05C57.05 343.25 57.15 342.65 57.25 342.25C57.35 342.05 57.35 341.85 57.35 341.65C57.25 341.85 57.15 342.05 57.15 342.25C56.95 342.75 56.85 343.35 56.65 344.05C56.45 344.75 56.15 345.85 55.85 346.951C55.55 348.05 55.25 349.35 54.95 350.75C53.35 358.15 52.15 365.65 51.35 373.25C50.35 382.05 49.85 390.05 49.85 395.951C49.85 398.85 49.85 401.25 49.95 402.85C49.95 403.65 50.05 404.25 50.05 404.75C50.05 404.951 50.05 405.15 50.15 405.35Z" fill="#253138"/>
<path d="M50.15 389.85C50.25 389.15 50.25 388.55 50.15 387.85C50.05 386.05 49.85 384.25 49.55 382.55C49.15 379.951 48.55 377.35 47.85 374.85C47.05 371.75 45.95 368.65 44.65 365.65C42.45 360.15 39.15 355.15 35.15 350.85C34.45 350.15 33.65 349.451 32.95 348.75C32.65 348.451 32.25 348.15 31.95 347.951L31.05 347.35C30.55 346.951 29.95 346.55 29.45 346.25C31.35 347.75 33.15 349.35 34.85 351.05C38.75 355.451 41.85 360.35 44.15 365.85C45.45 368.75 46.55 371.85 47.45 374.951C48.25 377.85 48.85 380.451 49.25 382.65C49.65 384.85 49.85 386.65 50.05 387.951C49.95 388.55 50.05 389.15 50.15 389.85Z" fill="#253138"/>
<path d="M35.15 417.25L36.65 438.55H64.15L65.65 417.25H35.15Z" fill="#253138"/>
<path d="M32.45 408.85H68.95V417.25H32.45V408.85Z" fill="#253138"/>
<path d="M32.45 437.75V440.05H34.15H68.35V437.75H32.45Z" fill="#455A63"/>
<path d="M35.85 444.15L34.15 440.05H67.05L65.05 444.15H35.85Z" fill="#455A63"/>
<path d="M65.15 424.251C65.15 424.351 65.05 424.351 65.05 424.451L64.65 424.951L63.05 426.951L62.95 427.051L62.85 426.951L58.95 421.55H59.15L55.25 427.051L55.15 427.251L55.05 427.051C53.65 425.351 52.05 423.55 50.45 421.55H50.75C50.65 421.649 50.55 421.75 50.55 421.85L46.45 426.951L46.35 427.15L46.25 426.951L42.35 421.451H42.55L37.75 426.951L37.65 427.051L37.55 426.951C36.95 425.951 36.45 425.051 36.05 424.451L35.65 423.75L35.55 423.55C35.55 423.55 35.65 423.649 35.75 423.75L36.15 424.351L37.75 426.851H37.55L42.25 421.35L42.35 421.25L42.45 421.35L46.35 426.751H46.05L50.15 421.649L50.35 421.35L50.45 421.149L50.55 421.35L55.15 426.851H54.85L58.75 421.451L58.85 421.25L58.95 421.451L62.75 426.951H62.85L64.55 424.951L64.95 424.451C65.05 424.251 65.15 424.15 65.15 424.251Z" fill="#DFDFDF"/>
<path d="M66.05 417.05C66.05 417.15 59.15 417.25 50.75 417.25C42.35 417.25 35.45 417.15 35.45 417.05C35.45 416.95 42.35 416.85 50.75 416.85C59.15 416.85 66.05 417.05 66.05 417.05Z" fill="#455A63"/>
<path d="M67.45 440.35C67.45 440.451 59.95 440.55 50.75 440.55C41.55 440.55 34.05 440.451 34.05 440.35C34.05 440.25 41.55 440.15 50.75 440.15C59.95 440.15 67.45 440.25 67.45 440.35Z" fill="#253138"/>
<path d="M94.25 291.75V301.351H147.15V443.75H152.05V301.351L373.15 302.45V443.75H377.85V302.149L412.05 302.45V290.95L94.25 291.75Z" fill="#253138"/>
<path d="M128.05 299.449L148.95 314.45L147.15 316.251L126.05 300.349L128.05 299.449Z" fill="#253138"/>
<path d="M397.55 300.85L373.35 318.15L375.151 319.85L399.55 301.75L397.55 300.85Z" fill="#253138"/>
<path d="M171.15 288.25H225.85V292.25H171.15V288.25Z" fill="#253138"/>
</g>
</g>
<defs>
<clipPath id="clip0_105_372">
<rect width="500" height="500" fill="white"/>
</clipPath>
</defs>
</svg>
