<svg width="340" height="368" viewBox="0 0 340 368" fill="none" xmlns="http://www.w3.org/2000/svg">
<path d="M201.905 175.636V363.625" stroke="#2A272D" stroke-width="1.9882" stroke-miterlimit="10"/>
<path d="M319.665 175.636V363.625" stroke="#2A272D" stroke-width="1.9882" stroke-miterlimit="10"/>
<path d="M132.277 233.693C132.277 233.693 154.874 227.778 158.276 244.765C161.214 259.34 130.479 258.782 130.479 258.782L62.9009 259.251C62.9009 259.251 37.4429 262.644 24.8589 228.738C12.2749 194.832 0.15485 106.038 0.15485 106.038C0.15485 106.038 -1.6622 93.8287 7.1524 92.043C17.5134 89.9448 19.5431 115.793 19.5431 115.793C19.5431 115.793 35.2006 225.39 57.933 230.747C61.4317 231.573 64.2153 234.631 67.7914 234.586L132.277 233.693Z" fill="#FFEEE3"/>
<path d="M192.336 145.167L213.677 143.471C215.416 143.337 217.079 144.252 218.065 145.881L229.992 166.707L219.843 167.265L214.121 157.109C214.121 157.109 197.633 161.863 191.544 157.109L192.336 145.167Z" fill="#F2C09E"/>
<path d="M106.375 77.6904L134.887 138.873L194.134 141.06V163.56L131.562 166.73C123.289 167.154 115.44 162.578 110.801 154.654L82.3277 95.6143L106.375 77.6904Z" fill="#EFC375"/>
<path d="M194.134 141.038V163.538L187.523 163.873V140.792L194.134 141.038Z" fill="#F7E5DA"/>
<path d="M163.09 322.398L166.434 349.451L183.29 348.246L180.873 320.322L163.09 322.398Z" fill="#FCC9A7"/>
<path d="M162.664 346.706C163.032 345.433 164.346 344.92 165.293 345.701C167.149 347.219 170.416 349.027 175.113 348.335C180.003 347.621 181.724 344.607 182.323 342.487C182.632 341.371 183.676 340.768 184.623 341.192L215.011 354.942C216.866 355.768 218.335 357.42 219.128 359.518C219.862 361.482 218.645 363.692 216.77 363.737L165.312 364.607C163.283 364.652 161.659 362.71 161.736 360.366L162.104 348.893C162.104 348.692 162.142 348.514 162.2 348.335L162.664 346.706Z" fill="#1F252A"/>
<path d="M111.884 72.4453L116.716 81.3961C117.026 82.2443 117.161 84.2979 115.827 85.0568L113.952 86.6193L109.931 79.5211L111.884 72.4453Z" fill="#FFEEE3"/>
<path d="M102.876 81.9092L101.349 81.061C96.3228 78.2262 94.2352 71.2173 96.6901 65.4138L113.005 26.8428L131.117 37.0659L112.27 80.2574C110.26 85.0565 107.032 84.2529 102.876 81.9092Z" fill="#FCC9A7"/>
<path d="M144.629 44.6776C139.313 57.2221 126.188 62.4453 115.324 56.3069C104.461 50.1686 99.9376 35.0348 105.253 22.468C110.569 9.9235 123.675 4.70035 134.558 10.8387C145.441 16.977 149.945 32.1331 144.629 44.6776Z" fill="#FCC9A7"/>
<path d="M118.185 69.6323C113.024 66.7305 110.879 59.5208 113.411 53.561L122.612 31.7979L144.803 44.32L137.303 62.0654C133.824 70.2349 125.26 73.6501 118.185 69.6323Z" fill="#FCC9A7"/>
<path d="M141.923 49.4319L143.121 59.1639C143.218 60.7041 141.807 61.7085 140.57 61.0166L135.119 59.2979L141.923 49.4319Z" fill="#FCC9A7"/>
<path d="M122.709 44.5659C122.709 44.5659 130.383 45.1462 131.639 31.4633C131.639 31.4633 144.977 41.2847 150.409 37.3785C150.409 37.3785 152.071 -1.32649 124.371 0.0351C96.6708 1.39669 94.5058 35.9276 94.5058 35.9276L110.047 52.1328L122.709 44.5659Z" fill="#1C2226"/>
<path d="M123.81 45.1243C122.361 48.584 118.746 50.0126 115.75 48.3162C112.773 46.6198 111.516 42.468 112.985 39.0083C114.435 35.5485 118.05 34.1199 121.046 35.8163C124.023 37.5127 125.26 41.6645 123.81 45.1243Z" fill="#FCC9A7"/>
<path d="M106.896 39.9902L102.779 51.0839C102.779 51.0839 111.826 59.4543 116.388 48.6732L109.815 46.5303L106.896 39.9902Z" fill="#1C2226"/>
<path d="M131.639 31.4636C131.639 31.4636 149.713 47.5795 156.846 34.0752C162.529 23.2941 156.208 16.3076 147.084 18.0486C143.141 18.8075 141.188 15.7272 138.095 13.2942L131.639 31.4636Z" fill="#1C2226"/>
<path d="M115.402 92.0205C115.402 92.0205 114.996 82.1768 112.29 78.7617C109.583 75.3465 95.163 65.927 95.163 65.927C95.163 65.927 74.4217 72.8689 61.683 100.235C51.7666 121.551 42.4301 175.502 42.4301 175.502L102.277 185.524C107.438 145.212 117.103 126.842 115.402 92.0205Z" fill="#FFD686"/>
<path d="M96.1682 64.03L93.6746 65.3246C92.7854 65.7933 92.5921 67.1773 93.3267 67.9362L109.139 84.186C109.777 84.8556 110.782 84.6547 111.226 83.8065L113.005 80.2575C113.333 79.5878 113.198 78.7396 112.676 78.2486L97.56 64.2755C97.1734 63.8737 96.6321 63.7844 96.1682 64.03Z" fill="#FFEEE3"/>
<path d="M185.745 148.828L207.085 147.132C208.825 146.998 210.487 147.913 211.473 149.543L222.414 167.511L212.188 169.029L207.53 160.748C207.53 160.748 191.041 165.502 184.952 160.748L185.745 148.828Z" fill="#FCC9A7"/>
<path d="M94.2545 82.2439L126.459 144.989L187.542 146.931V167.221L121.626 170.547C115.44 170.859 109.545 167.444 106.065 161.506L70.2077 100.168L94.2545 82.2439Z" fill="#FFD686"/>
<path d="M187.542 146.931V167.199L180.931 167.533V146.931H187.542Z" fill="#FFEEE3"/>
<path d="M42.4301 175.502L160.151 195.212C169.159 196.729 176.118 205.145 176.988 215.613L185.764 331.393L159.475 333.357L146.833 233.001L72.9139 235.211C52.8491 235.211 37.4622 214.631 40.3811 191.707L42.4301 175.502Z" fill="#54585A"/>
<path d="M251.081 166.73H188.992V171.373H251.081V166.73Z" fill="#2A272D"/>
<path d="M251.1 171.373L271.184 103.628L266.97 102.467L247.273 167.533L251.1 171.373Z" fill="#2A272D"/>
<path d="M117.2 69.0076C117.2 69.0076 111.613 65.1907 111.613 57.155C111.613 57.155 108.134 65.8603 115.228 73.5165L117.2 69.0076Z" fill="#F2C09E"/>
<path d="M25.5548 368C26.4827 368 27.3332 367.263 27.5845 366.17L58.3196 226.238C60.8712 214.653 69.8598 206.551 80.2208 206.551C90.2725 206.551 99.2031 214.341 101.948 225.501C112.696 269.229 137.709 364.629 137.96 365.589C138.289 366.862 139.468 367.598 140.57 367.196C141.672 366.817 142.31 365.455 141.962 364.183C141.71 363.223 116.697 267.867 105.969 224.184C102.721 210.948 92.1282 201.707 80.2014 201.707C67.9267 201.707 57.2564 211.305 54.2409 225.033L23.5058 364.987C23.2159 366.281 23.8924 367.598 25.0136 367.933C25.2069 367.978 25.3808 368 25.5548 368Z" fill="#1F252A"/>
<path d="M106.085 161.484L87.6242 129.945" stroke="#EFC375" stroke-width="0.7847" stroke-miterlimit="10" stroke-linecap="round" stroke-linejoin="round"/>
<path d="M340 171.372H179.153V179.743H340V171.372Z" fill="#FFEEE3"/>
<path d="M201.905 200.078H319.665" stroke="#2A272D" stroke-width="1.9882" stroke-miterlimit="10"/>
<path d="M116.91 124.833L99.2224 91.9092" stroke="#EFC375" stroke-width="0.7847" stroke-miterlimit="10" stroke-linecap="round" stroke-linejoin="round"/>
</svg>
